<svg xmlns="http://www.w3.org/2000/svg" width="205" height="64" fill="none" viewBox="0 0 205 64">
  <rect width="205" height="64" fill="#3671E9" rx="32"/>
  <path fill="#fff" d="M30.103 38.68c-1.08 0-2.004-.162-2.772-.486-.768-.324-1.35-.75-1.746-1.278a3.02 3.02 0 01-.63-1.728c0-.096.036-.18.108-.252a.341.341 0 01.27-.126h1.638c.132 0 .24.03.324.09.084.06.162.144.234.252.12.408.39.75.81 1.026.432.276 1.02.414 1.764.414.84 0 1.47-.138 1.89-.414.432-.288.648-.678.648-1.17 0-.324-.108-.594-.324-.81-.216-.216-.546-.402-.99-.558-.432-.168-1.08-.366-1.944-.594-1.416-.336-2.454-.78-3.114-1.332-.66-.552-.99-1.344-.99-2.376 0-.696.192-1.314.576-1.854.384-.552.93-.984 1.638-1.296.72-.312 1.554-.468 2.502-.468.996 0 1.854.174 2.574.522.732.348 1.284.786 1.656 1.314.384.516.588 1.032.612 1.548a.408.408 0 01-.108.27.366.366 0 01-.27.108h-1.71c-.264 0-.444-.108-.54-.324-.06-.384-.294-.702-.702-.954-.408-.264-.912-.396-1.512-.396-.66 0-1.182.126-1.566.378-.372.252-.558.618-.558 1.098 0 .324.096.594.288.81.192.216.492.408.9.576.408.156 1.002.336 1.782.54 1.068.24 1.914.51 2.538.81.636.3 1.104.678 1.404 1.134.3.456.45 1.038.45 1.746 0 .78-.216 1.458-.648 2.034-.42.564-1.02.996-1.8 1.296-.768.3-1.662.45-2.682.45zm11.206-.18c-1.092 0-1.914-.282-2.466-.846-.552-.576-.828-1.416-.828-2.52v-4.068h-1.422a.417.417 0 01-.306-.126.417.417 0 01-.126-.306v-1.062c0-.12.042-.222.126-.306a.417.417 0 01.306-.126h1.422v-2.988c0-.132.042-.234.126-.306a.417.417 0 01.306-.126h1.494c.132 0 .234.042.306.126a.381.381 0 01.126.306v2.988h2.25c.12 0 .222.042.306.126a.417.417 0 01.126.306v1.062c0 .12-.042.222-.126.306a.417.417 0 01-.306.126h-2.25v3.87c0 .516.09.906.27 1.17.18.264.474.396.882.396h1.26c.132 0 .234.042.306.126a.381.381 0 01.126.306v1.134c0 .12-.042.222-.126.306a.381.381 0 01-.306.126h-1.476zm6.222.18c-.612 0-1.176-.12-1.692-.36a3.218 3.218 0 01-1.206-1.008 2.398 2.398 0 01-.432-1.386c0-.816.33-1.476.99-1.98.66-.504 1.566-.846 2.718-1.026l2.466-.36v-.378c0-.516-.132-.906-.396-1.17-.264-.264-.684-.396-1.26-.396-.396 0-.714.072-.954.216a3.07 3.07 0 00-.594.45l-.288.288c-.048.144-.138.216-.27.216h-1.404a.43.43 0 01-.288-.108.39.39 0 01-.108-.288c.012-.3.156-.636.432-1.008.288-.384.726-.714 1.314-.99.588-.288 1.314-.432 2.178-.432 1.416 0 2.448.318 3.096.954.648.636.972 1.47.972 2.502v5.652c0 .12-.042.222-.126.306a.381.381 0 01-.306.126h-1.494a.417.417 0 01-.306-.126.417.417 0 01-.126-.306v-.702c-.264.384-.636.702-1.116.954-.48.24-1.08.36-1.8.36zm.612-1.728c.66 0 1.2-.216 1.62-.648.42-.432.63-1.056.63-1.872v-.36l-1.8.288c-1.38.216-2.07.678-2.07 1.386 0 .384.156.684.468.9.324.204.708.306 1.152.306zm7.403 1.548a.417.417 0 01-.306-.126.417.417 0 01-.126-.306V29.59c0-.132.042-.24.126-.324a.417.417 0 01.306-.126h1.476c.132 0 .24.042.324.126a.439.439 0 01.126.324v.738c.6-.792 1.464-1.188 2.592-1.188h.756c.132 0 .234.042.306.126a.381.381 0 01.126.306v1.314c0 .12-.042.222-.126.306a.381.381 0 01-.306.126h-1.422c-.564 0-1.008.162-1.332.486-.324.324-.486.768-.486 1.332v4.932c0 .12-.042.222-.126.306a.417.417 0 01-.306.126h-1.602zm11.357 0c-1.092 0-1.914-.282-2.466-.846-.552-.576-.828-1.416-.828-2.52v-4.068h-1.422a.417.417 0 01-.306-.126.417.417 0 01-.126-.306v-1.062c0-.12.042-.222.126-.306a.417.417 0 01.306-.126h1.422v-2.988c0-.132.042-.234.126-.306a.417.417 0 01.306-.126h1.494c.132 0 .234.042.306.126a.381.381 0 01.126.306v2.988h2.25c.12 0 .222.042.306.126a.417.417 0 01.126.306v1.062c0 .12-.042.222-.126.306a.417.417 0 01-.306.126h-2.25v3.87c0 .516.09.906.27 1.17.18.264.474.396.882.396h1.26c.132 0 .234.042.306.126a.381.381 0 01.126.306v1.134c0 .12-.042.222-.126.306a.381.381 0 01-.306.126h-1.476zm8.031 0a.417.417 0 01-.305-.126.417.417 0 01-.127-.306v-8.496c0-.132.043-.234.127-.306a.417.417 0 01.305-.126h1.422c.133 0 .235.042.306.126a.381.381 0 01.126.306v.612c.648-.816 1.519-1.224 2.61-1.224 1.333 0 2.263.534 2.79 1.602a3.15 3.15 0 011.224-1.152c.528-.3 1.098-.45 1.71-.45.984 0 1.788.336 2.412 1.008.624.672.936 1.65.936 2.934v5.166c0 .12-.041.222-.126.306a.381.381 0 01-.305.126h-1.495a.417.417 0 01-.305-.126.417.417 0 01-.127-.306v-5.022c0-.756-.161-1.302-.486-1.638-.312-.336-.726-.504-1.242-.504-.468 0-.87.174-1.206.522-.323.336-.486.876-.486 1.62v5.022c0 .12-.041.222-.125.306a.381.381 0 01-.306.126h-1.512a.417.417 0 01-.306-.126.417.417 0 01-.126-.306v-5.022c0-.744-.162-1.284-.486-1.62-.325-.348-.739-.522-1.243-.522-.467 0-.87.174-1.206.522-.324.336-.486.876-.486 1.62v5.022c0 .12-.041.222-.126.306a.381.381 0 01-.305.126h-1.53zm16.188-10.89a.417.417 0 01-.306-.126.417.417 0 01-.126-.306v-1.314c0-.132.042-.24.126-.324a.417.417 0 01.306-.126h1.656c.132 0 .24.042.324.126a.439.439 0 01.126.324v1.314c0 .12-.048.222-.144.306a.417.417 0 01-.306.126h-1.656zm.072 10.89a.417.417 0 01-.306-.126.417.417 0 01-.126-.306v-8.496c0-.132.042-.234.126-.306a.417.417 0 01.306-.126h1.53c.12 0 .222.042.306.126a.417.417 0 01.126.306v8.496c0 .12-.042.222-.126.306a.417.417 0 01-.306.126h-1.53zm4.764 0a.417.417 0 01-.306-.126.417.417 0 01-.126-.306v-8.496c0-.132.042-.234.126-.306a.417.417 0 01.306-.126h1.494c.132 0 .234.042.306.126a.381.381 0 01.126.306v.738c.732-.9 1.734-1.35 3.006-1.35 1.104 0 1.98.36 2.628 1.08.648.72.972 1.71.972 2.97v5.058c0 .12-.042.222-.126.306a.381.381 0 01-.306.126h-1.62a.417.417 0 01-.306-.126.417.417 0 01-.126-.306v-4.95c0-.696-.174-1.236-.522-1.62-.336-.396-.822-.594-1.458-.594-.612 0-1.104.198-1.476.594-.372.396-.558.936-.558 1.62v4.95c0 .12-.042.222-.126.306a.381.381 0 01-.306.126h-1.602zm11.178-10.89a.417.417 0 01-.306-.126.417.417 0 01-.126-.306v-1.314c0-.132.042-.24.126-.324a.417.417 0 01.306-.126h1.656c.132 0 .24.042.324.126a.439.439 0 01.126.324v1.314c0 .12-.048.222-.144.306a.417.417 0 01-.306.126h-1.656zm.072 10.89a.417.417 0 01-.306-.126.417.417 0 01-.126-.306v-8.496c0-.132.042-.234.126-.306a.417.417 0 01.306-.126h1.53c.12 0 .222.042.306.126a.417.417 0 01.126.306v8.496c0 .12-.042.222-.126.306a.417.417 0 01-.306.126h-1.53zm4.764 0a.417.417 0 01-.306-.126.417.417 0 01-.126-.306v-8.496c0-.132.042-.234.126-.306a.417.417 0 01.306-.126h1.494c.132 0 .234.042.306.126a.381.381 0 01.126.306v.738c.732-.9 1.734-1.35 3.006-1.35 1.104 0 1.98.36 2.628 1.08.648.72.972 1.71.972 2.97v5.058c0 .12-.042.222-.126.306a.381.381 0 01-.306.126h-1.62a.417.417 0 01-.306-.126.417.417 0 01-.126-.306v-4.95c0-.696-.174-1.236-.522-1.62-.336-.396-.822-.594-1.458-.594-.612 0-1.104.198-1.476.594-.372.396-.558.936-.558 1.62v4.95c0 .12-.042.222-.126.306a.381.381 0 01-.306.126h-1.602zm15.048 3.96c-1.068 0-1.932-.18-2.592-.54-.66-.348-1.128-.75-1.404-1.206-.276-.456-.414-.846-.414-1.17 0-.12.042-.222.126-.306a.454.454 0 01.306-.108h1.602c.108 0 .198.024.27.072.084.06.15.162.198.306.132.312.33.576.594.792.264.228.672.342 1.224.342.72 0 1.248-.162 1.584-.486.336-.312.504-.864.504-1.656v-1.224c-.648.768-1.566 1.152-2.754 1.152-1.248 0-2.19-.378-2.826-1.134-.624-.756-.96-1.788-1.008-3.096l-.018-.486.018-.486c.048-1.284.39-2.316 1.026-3.096.636-.78 1.572-1.17 2.808-1.17.636 0 1.194.12 1.674.36s.876.564 1.188.972v-.702c0-.132.042-.24.126-.324a.48.48 0 01.324-.126h1.476c.12 0 .222.042.306.126a.439.439 0 01.126.324l.018 8.676c0 1.332-.372 2.364-1.116 3.096-.744.732-1.866 1.098-3.366 1.098zm-.072-5.94c.672 0 1.176-.216 1.512-.648.336-.432.522-.96.558-1.584.012-.096.018-.288.018-.576s-.006-.48-.018-.576c-.036-.624-.222-1.152-.558-1.584-.336-.432-.84-.648-1.512-.648-1.296 0-1.98.792-2.052 2.376l-.018.432c0 1.872.69 2.808 2.07 2.808z"/>
  <circle cx="173" cy="32" r="16" fill="#fff"/>
  <path fill="#3671E9" d="M171.5 37a1 1 0 01-.71-1.71L174.1 32l-3.18-3.31a1.001 1.001 0 111.42-1.41l3.86 4a1.001 1.001 0 010 1.4l-4 4a1.004 1.004 0 01-.7.32z"/>
</svg>
